<svg xmlns="http://www.w3.org/2000/svg" width="1000" height="420" viewBox="0 0 1000 420">
<rect width="100%" height="100%" fill="white"/>
<rect x="60" y="55" width="410" height="300" fill="#f7f7f7" stroke="#333"/>
<text x="265.0" y="30" text-anchor="middle" font-family="sans-serif" font-size="18">IGBT verified-mesh Emax and frozen track</text>
<line x1="77.84" y1="134.69" x2="469.94" y2="134.69" stroke="#6a3d9a" stroke-width="3"/>
<circle cx="60.00" cy="134.69" r="6" fill="#2c7fb8"/>
<text x="68.00" y="128.69" font-family="sans-serif" font-size="12">325 V</text>
<circle cx="60.00" cy="134.69" r="6" fill="#fdae61"/>
<text x="68.00" y="128.69" font-family="sans-serif" font-size="12">400 V</text>
<circle cx="60.00" cy="134.69" r="6" fill="#d7191c"/>
<text x="68.00" y="128.69" font-family="sans-serif" font-size="12">500 V</text>
<text x="265.0" y="390" text-anchor="middle" font-family="sans-serif" font-size="13">x: device depth (um)</text>
<text x="22" y="205.0" transform="rotate(-90 22 205.0)" text-anchor="middle" font-family="sans-serif" font-size="13">y: lateral coordinate (um)</text>
<rect x="530" y="55" width="410" height="300" fill="#f7f7f7" stroke="#333"/>
<text x="735.0" y="30" text-anchor="middle" font-family="sans-serif" font-size="18">MOSFET verified-mesh Emax and frozen track</text>
<line x1="550.50" y1="134.98" x2="939.94" y2="134.98" stroke="#6a3d9a" stroke-width="3"/>
<circle cx="530.00" cy="134.98" r="6" fill="#2c7fb8"/>
<text x="538.00" y="128.98" font-family="sans-serif" font-size="12">325 V</text>
<circle cx="530.00" cy="134.98" r="6" fill="#fdae61"/>
<text x="538.00" y="128.98" font-family="sans-serif" font-size="12">400 V</text>
<circle cx="530.00" cy="134.98" r="6" fill="#d7191c"/>
<text x="538.00" y="128.98" font-family="sans-serif" font-size="12">500 V</text>
<text x="735.0" y="390" text-anchor="middle" font-family="sans-serif" font-size="13">x: device depth (um)</text>
<text x="492" y="205.0" transform="rotate(-90 492 205.0)" text-anchor="middle" font-family="sans-serif" font-size="13">y: lateral coordinate (um)</text>
<text x="500" y="408" text-anchor="middle" font-family="sans-serif" font-size="13" fill="#6a3d9a">Purple: direction=(1,0), strict-interior Silicon track</text>
</svg>
